<?xml version="1.0" encoding="UTF-8"?>
<svg width="435px" height="104px" viewBox="0 0 435 104" version="1.1" xmlns="http://www.w3.org/2000/svg" xmlns:xlink="http://www.w3.org/1999/xlink">
    <!-- Generator: Sketch 62 (91390) - https://sketch.com -->
    <title>Logo</title>
    <desc>Created with Sketch.</desc>
    <defs>
        <polygon id="path-1" points="0.604573643 0.29601194 4.1844186 0.29601194 4.1844186 3.88059701 0.604573643 3.88059701"></polygon>
        <polygon id="path-3" points="0.448294574 0.30361791 4.02868217 0.30361791 4.02868217 3.88928955 0.448294574 3.88928955"></polygon>
        <polygon id="path-5" points="0 0.193408955 2.24875969 0.193408955 2.24875969 2.44570746 0 2.44570746"></polygon>
        <polygon id="path-7" points="0.189776037 0.289772727 162.43897 0.289772727 162.43897 56.8823864 0.189776037 56.8823864"></polygon>
    </defs>
    <g id="Desktop" stroke="none" stroke-width="1" fill="none" fill-rule="evenodd">
        <g id="Desktop-Light" transform="translate(-240.000000, -9.000000)">
            <g id="Header">
                <g id="Logo" transform="translate(240.000000, 9.000000)">
                    <g id="Group-92">
                        <path d="M76.6654264,45.9086269 C73.3150388,46.2485672 72.8266667,47.034 72.1886822,48.8974627 C71.539845,50.764806 68.3786047,58.1829552 63.9553488,60.2280299 C59.1111628,62.2917313 54.9592248,63.914597 52.8894574,66.3880896 C51.1266667,68.3687463 48.7848062,71.6230149 52.8506977,71.8100597 C57.3537984,71.636209 65.1506977,68.7226567 72.6096124,61.7794925 C77.2282171,57.4790149 79.4382946,48.5117313 79.4382946,48.5117313 C79.4382946,48.5117313 80.0072868,46.0948955 76.6654264,45.9086269" id="Fill-1" fill="#BE287E"></path>
                        <path d="M64.4062016,42.0769254 C62.7682171,44.538 62.3054264,45.7720299 62.8604651,47.7317313 C63.1069767,50.1873731 62.5333333,54.9713731 57.555814,58.9125075 C55.4713178,60.2443284 55.1100775,60.8147761 56.6953488,60.9653433 C59.3581395,60.7200896 64.1418605,59.5970448 67.0364341,54.6190149 C69.9387597,49.6433134 71.5806202,47.0099403 70.3875969,43.0633731 C69.7054264,38.9538209 67.0496124,33.1531045 67.0496124,33.1531045 C67.0496124,33.1531045 66.4286822,31.9586567 64.9488372,32.9908955 C63.7658915,34.2179403 64.2286822,34.4771642 64.8449612,35.840806 C65.5728682,37.862597 66.1271318,39.8199701 64.4062016,42.0769254" id="Fill-3" fill="#BE287E"></path>
                        <path d="M50.9281395,63.8265075 C50.9281395,63.8265075 47.2963566,65.1148657 40.8653488,63.3445373 C34.4351163,61.5788657 27.8924806,58.8127761 26.0296899,55.9357015 C24.1560465,53.2239403 23.9025581,51.2921791 23.9025581,51.2921791 C23.9025581,51.2921791 19.8909302,48.3204179 17.6622481,52.2289552 C17.0072093,54.6124179 17.9296899,61.5268657 26.2351163,65.6527164 C29.2955814,66.9558209 34.6320155,67.964 37.1731008,65.5751045 C38.8265891,68.2907463 40.1529457,70.3544478 43.4583721,70.0882388 C47.1529457,69.7048358 49.5405426,66.3814925 51.5358915,65.539403 C52.7544961,64.5894328 53.0816279,63.3926567 50.9281395,63.8265075" id="Fill-5" fill="#BE287E"></path>
                        <path d="M32.2242636,58.5778448 C33.2397674,59.3027403 34.4374419,59.3943224 34.7490698,58.8945015 C34.9754264,58.1936657 33.7506202,57.4773075 32.4808527,56.6561731 C29.997907,54.5986806 30.5374419,49.7153373 31.2134109,48.2981433 C32.214186,45.689606 32.4002326,45.2278149 32.4002326,45.2278149 C32.4002326,45.2278149 32.4948062,44.565009 31.8692248,43.8952179 C31.8692248,43.8952179 26.3126357,37.1973075 23.0575969,40.9025015 C21.3552713,44.3019045 21.9808527,50.844591 32.2242636,58.5778448" id="Fill-7" fill="#BE287E"></path>
                        <path d="M34.6406977,44.4818866 C33.6879845,42.9925134 33.194186,40.0937075 34.3910853,36.3303045 C35.6391473,32.6662448 41.2275194,29.742603 41.2275194,29.742603 C38.9562016,28.0211701 34.4577519,27.8496478 31.0492248,32.6383045 C27.5825581,38.0199164 31.7313953,42.2691701 34.6406977,44.4818866" id="Fill-9" fill="#BE287E"></path>
                        <path d="M57.8669767,33.4395701 C59.0134884,31.937003 57.832093,29.3075104 54.1243411,28.3715104 C50.3289922,27.4098985 44.0817054,30.7076299 44.0817054,30.7076299 C44.0817054,30.7076299 48.7817054,29.5512119 57.8669767,33.4395701" id="Fill-11" fill="#BE287E"></path>
                        <path d="M49.1566667,41.5217672 C53.8008527,42.8039164 59.4132558,42.8613493 62.4039535,39.4114985 C63.2109302,37.9562746 62.6000775,34.7501254 59.3473643,34.4233791 C59.3473643,34.4233791 57.641938,39.6668418 49.1566667,41.5217672" id="Fill-13" fill="#BE287E"></path>
                        <path d="M59.0472093,53.5061373 C61.3689147,51.4703761 60.3045736,49.1482269 59.4704651,47.9654209 C58.7472093,45.9475104 58.6193023,43.7945552 58.6193023,43.7945552 C58.6193023,43.7945552 49.6425581,44.5970627 42.4743411,41.1534209 C42.7851938,42.6746149 46.4805426,44.3005851 50.4751163,45.9537194 C54.6751163,47.9460179 58.9386822,50.6624358 59.0472093,53.5061373" id="Fill-15" fill="#BE287E"></path>
                        <path d="M52.3134884,38.4817075 C54.0266667,38.4165134 55.8506977,35.4983045 53.9034109,34.4264836 C51.9553488,33.3562149 50.2049612,32.9728119 49.3437209,33.0061851 C49.3437209,33.0061851 50.5282171,33.792394 50.0987597,35.8258269 C49.5871318,37.4758567 50.0452713,38.2558567 52.3134884,38.4817075" id="Fill-17" fill="#BE287E"></path>
                        <path d="M49.7948837,39.8330866 C46.8995349,38.9366687 45.8514729,37.7577433 46.2367442,35.9726687 C46.9654264,34.1410269 47.1646512,32.8146388 45.2809302,32.6446687 C45.2809302,32.6446687 41.4576744,33.0676537 40.9227907,35.7638925 C41.26,37.7305791 44.2351938,41.0174448 49.7948837,39.8330866" id="Fill-19" fill="#BE287E"></path>
                        <path d="M35.8712403,45.0253254 C35.8712403,45.0253254 35.4534109,46.5356537 34.5665891,49.6253851 C32.6441085,55.2227582 35.8193023,58.854997 40.785969,61.1282507 C45.7177519,63.1228776 50.4410078,62.7689672 53.2053488,59.8476537 C56.0270543,56.332609 51.7611628,53.4438925 48.313876,52.4310567 C41.0689147,50.4550567 35.8712403,45.0253254 35.8712403,45.0253254" id="Fill-21" fill="#BE287E"></path>
                        <path d="M44.3185271,44.9058806 C39.8836434,42.126597 38.2200775,37.9169254 38.5882946,36.6549552 C38.9642636,35.3883284 38.530155,33.5652239 36.6797674,35.684806 C36.6797674,35.684806 33.7410078,42.7443881 38.9076744,45.3575821 C43.0634884,47.5974627 56.1743411,53.7559701 56.5875194,54.2612239 C55.506124,50.9689254 48.3076744,46.7289851 44.3185271,44.9058806" id="Fill-23" fill="#BE287E"></path>
                        <path d="M45.1300775,96.2150567 L42.8804651,76.1531463 L45.1300775,75.7006687 L45.1300775,96.2150567 Z M36.3285271,74.2198328 L38.5285271,73.8418627 L39.5603101,94.2871761 L36.3285271,74.2198328 Z M29.5610853,72.3858627 L32.0324031,71.9815045 L33.9990698,90.7069373 L29.5610853,72.3858627 Z M23.295969,70.4409075 L25.6021705,70.1226985 L29.4525581,89.8803701 L23.295969,70.4409075 Z M74.6494574,67.5995343 L71.4804651,67.8626388 L69.9851163,70.4610866 L65.664186,70.7210866 L63.5564341,73.6680119 L59.0649612,72.9244896 L56.1308527,75.3560716 L52.0060465,73.7037134 L48.764186,75.4468776 L45.4044961,73.7037134 L41.416124,74.3929075 L38.8044961,71.9698627 L34.995969,72.6024 L32.7525581,70.1700418 L28.5541085,70.7210866 L25.8091473,68.2646687 L22.3308527,68.793206 L17.4928682,64.2420418 L28.5541085,94.7683701 C28.5541085,94.7683701 32.0362791,99.7037134 48.0106977,99.7037134 C65.0378295,99.7037134 69.6068217,94.7683701 69.6068217,94.7683701 L78.5316279,64.2420418 L74.6494574,67.5995343 Z" id="Fill-25" fill="#DC9C42"></path>
                        <path d="M14.883876,95.387791 C14.883876,96.6039701 13.8978295,97.5919701 12.6815504,97.5919701 C11.4668217,97.5919701 10.4823256,96.6039701 10.4823256,95.387791 C10.4823256,94.1708358 11.4668217,93.1851642 12.6815504,93.1851642 C13.8978295,93.1851642 14.883876,94.1708358 14.883876,95.387791" id="Fill-27" fill="#DC9C42"></path>
                        <path d="M40.2487597,51.7000299 C40.2487597,52.9154328 39.2627132,53.9018806 38.0479845,53.9018806 C36.8324806,53.9018806 35.8472093,52.9154328 35.8472093,51.7000299 C35.8472093,50.4830746 36.8324806,49.4958507 38.0479845,49.4958507 C39.2627132,49.4958507 40.2487597,50.4830746 40.2487597,51.7000299" id="Fill-29" fill="#DC9C42"></path>
                        <path d="M50.2112403,2.20309254 C50.2112403,3.42082388 49.225969,4.40649552 48.0104651,4.40649552 C46.794186,4.40649552 45.8096899,3.42082388 45.8096899,2.20309254 C45.8096899,0.987689552 46.794186,0.000465671642 48.0104651,0.000465671642 C49.225969,0.000465671642 50.2112403,0.987689552 50.2112403,2.20309254" id="Fill-31" fill="#DC9C42"></path>
                        <path d="M69.5857364,25.8629373 C69.5857364,27.0775642 68.6004651,28.0647881 67.3849612,28.0647881 C66.1702326,28.0647881 65.184186,27.0775642 65.184186,25.8629373 C65.184186,24.6444299 66.1702326,23.6587582 67.3849612,23.6587582 C68.6004651,23.6587582 69.5857364,24.6444299 69.5857364,25.8629373" id="Fill-33" fill="#DC9C42"></path>
                        <path d="M82.9306202,93.1852418 C82.9306202,94.4006448 81.9453488,95.3878687 80.729845,95.3878687 C79.5151163,95.3878687 78.5313953,94.4006448 78.5313953,93.1852418 C78.5313953,91.9698388 79.5151163,90.9818388 80.729845,90.9818388 C81.9453488,90.9818388 82.9306202,91.9698388 82.9306202,93.1852418" id="Fill-35" fill="#DC9C42"></path>
                        <path d="M36.7425581,24.0704119 C36.7425581,25.0599642 35.9410078,25.8632478 34.954186,25.8632478 C33.9634884,25.8632478 33.1627132,25.0599642 33.1627132,24.0704119 C33.1627132,23.0793075 33.9634884,22.2775761 34.954186,22.2775761 C35.9410078,22.2775761 36.7425581,23.0793075 36.7425581,24.0704119" id="Fill-37" fill="#DC9C42"></path>
                        <path d="M16.673876,87.2135463 C16.673876,88.2046507 15.8707752,89.005606 14.8839535,89.005606 C13.8932558,89.005606 13.0924806,88.2046507 13.0924806,87.2135463 C13.0924806,86.2232179 13.8932558,85.4199343 14.8839535,85.4199343 C15.8707752,85.4199343 16.673876,86.2232179 16.673876,87.2135463" id="Fill-39" fill="#DC9C42"></path>
                        <g id="Group-43" transform="translate(32.558140, 99.866388)">
                            <mask id="mask-2" fill="white">
                                <use xlink:href="#path-1"></use>
                            </mask>
                            <g id="Clip-42"></g>
                            <path d="M4.1844186,2.08807164 C4.1844186,3.07762388 3.38286822,3.88090746 2.39604651,3.88090746 C1.40534884,3.88090746 0.604573643,3.07762388 0.604573643,2.08807164 C0.604573643,1.10007164 1.40534884,0.29601194 2.39604651,0.29601194 C3.38286822,0.29601194 4.1844186,1.10007164 4.1844186,2.08807164" id="Fill-41" fill="#DC9C42" mask="url(#mask-2)"></path>
                        </g>
                        <path d="M86.5128682,66.0327821 C86.5128682,67.0223343 85.7097674,67.8248418 84.7213953,67.8248418 C83.7322481,67.8248418 82.9306977,67.0223343 82.9306977,66.0327821 C82.9306977,65.0432299 83.7322481,64.2422746 84.7213953,64.2422746 C85.7097674,64.2422746 86.5128682,65.0432299 86.5128682,66.0327821" id="Fill-44" fill="#DC9C42"></path>
                        <path d="M76.1855039,98.5775642 C76.1855039,99.5671164 75.3847287,100.369624 74.3963566,100.369624 C73.4048837,100.369624 72.6056589,99.5671164 72.6056589,98.5775642 C72.6056589,97.5880119 73.4048837,96.7839522 74.3963566,96.7839522 C75.3847287,96.7839522 76.1855039,97.5880119 76.1855039,98.5775642" id="Fill-46" fill="#DC9C42"></path>
                        <path d="M44.2648062,11.7552597 C44.2648062,12.7448119 43.4617054,13.5488716 42.4748837,13.5488716 C41.484186,13.5488716 40.684186,12.7448119 40.684186,11.7552597 C40.684186,10.7672597 41.484186,9.96242388 42.4748837,9.96242388 C43.4617054,9.96242388 44.2648062,10.7672597 44.2648062,11.7552597" id="Fill-48" fill="#DC9C42"></path>
                        <path d="M35.479845,33.0049433 C35.479845,33.9929433 34.6775194,34.797003 33.6899225,34.797003 C32.7,34.797003 31.8992248,33.9929433 31.8992248,33.0049433 C31.8992248,32.0146149 32.7,31.2097791 33.6899225,31.2097791 C34.6775194,31.2097791 35.479845,32.0146149 35.479845,33.0049433" id="Fill-50" fill="#DC9C42"></path>
                        <path d="M61.3046512,38.4817075 C61.3046512,39.4728119 60.5007752,40.2737672 59.5147287,40.2737672 C58.524031,40.2737672 57.7224806,39.4728119 57.7224806,38.4817075 C57.7224806,37.4937075 58.524031,36.6896478 59.5147287,36.6896478 C60.5007752,36.6896478 61.3046512,37.4937075 61.3046512,38.4817075" id="Fill-52" fill="#DC9C42"></path>
                        <path d="M68.1004651,46.767403 C68.1004651,47.7585075 67.2965891,48.5602388 66.3105426,48.5602388 C65.319845,48.5602388 64.519845,47.7585075 64.519845,46.767403 C64.519845,45.779403 65.319845,44.9753433 66.3105426,44.9753433 C67.2965891,44.9753433 68.1004651,45.779403 68.1004651,46.767403" id="Fill-54" fill="#DC9C42"></path>
                        <g id="Group-58" transform="translate(95.348837, 92.881313)">
                            <mask id="mask-4" fill="white">
                                <use xlink:href="#path-3"></use>
                            </mask>
                            <g id="Clip-57"></g>
                            <path d="M4.02891473,2.09645373 C4.02891473,3.08755821 3.22736434,3.88928955 2.23899225,3.88928955 C1.24829457,3.88928955 0.448294574,3.08755821 0.448294574,2.09645373 C0.448294574,1.10767761 1.24829457,0.30361791 2.23899225,0.30361791 C3.22736434,0.30361791 4.02891473,1.10767761 4.02891473,2.09645373" id="Fill-56" fill="#DC9C42" mask="url(#mask-4)"></path>
                        </g>
                        <path d="M60.0775194,8.17176119 C60.0775194,9.16053731 59.2744186,9.96304478 58.2860465,9.96304478 C57.2968992,9.96304478 56.4976744,9.16053731 56.4976744,8.17176119 C56.4976744,7.18065672 57.2968992,6.37659701 58.2860465,6.37659701 C59.2744186,6.37659701 60.0775194,7.18065672 60.0775194,8.17176119" id="Fill-59" fill="#DC9C42"></path>
                        <path d="M14.2165891,51.7000299 C14.2165891,52.3217015 13.7134884,52.825403 13.0925581,52.825403 C12.4716279,52.825403 11.9685271,52.3217015 11.9685271,51.7000299 C11.9685271,51.0775821 12.4716279,50.5738806 13.0925581,50.5738806 C13.7134884,50.5738806 14.2165891,51.0775821 14.2165891,51.7000299" id="Fill-61" fill="#DC9C42"></path>
                        <path d="M95.7969767,95.387791 C95.7969767,96.0102388 95.293876,96.5147164 94.6729457,96.5147164 C94.0512403,96.5147164 93.5481395,96.0102388 93.5481395,95.387791 C93.5481395,94.7661194 94.0512403,94.2608657 94.6729457,94.2608657 C95.293876,94.2608657 95.7969767,94.7661194 95.7969767,95.387791" id="Fill-63" fill="#DC9C42"></path>
                        <path d="M76.6442636,90.1315224 C76.6442636,90.753194 76.1411628,91.2568955 75.5194574,91.2568955 C74.8985271,91.2568955 74.3969767,90.753194 74.3969767,90.1315224 C74.3969767,89.5098507 74.8985271,89.0053731 75.5194574,89.0053731 C76.1411628,89.0053731 76.6442636,89.5098507 76.6442636,90.1315224" id="Fill-65" fill="#DC9C42"></path>
                        <path d="M25.6468992,99.703403 C25.6468992,100.325075 25.1422481,100.828776 24.522093,100.828776 C23.9011628,100.828776 23.398062,100.325075 23.398062,99.703403 C23.398062,99.0809552 23.9011628,98.5772537 24.522093,98.5772537 C25.1422481,98.5772537 25.6468992,99.0809552 25.6468992,99.703403" id="Fill-67" fill="#DC9C42"></path>
                        <path d="M32.4972093,100.828931 C32.4972093,101.450603 31.9925581,101.954304 31.3724031,101.954304 C30.7514729,101.954304 30.2483721,101.450603 30.2483721,100.828931 C30.2483721,100.20726 30.7514729,99.7035582 31.3724031,99.7035582 C31.9925581,99.7035582 32.4972093,100.20726 32.4972093,100.828931" id="Fill-69" fill="#DC9C42"></path>
                        <g id="Group-73" transform="translate(0.000000, 93.657433)">
                            <mask id="mask-6" fill="white">
                                <use xlink:href="#path-5"></use>
                            </mask>
                            <g id="Clip-72"></g>
                            <path d="M2.24875969,1.32033433 C2.24875969,1.94200597 1.74565891,2.44570746 1.12395349,2.44570746 C0.503023256,2.44570746 -7.75193798e-05,1.94200597 -7.75193798e-05,1.32033433 C-7.75193798e-05,0.698662687 0.503023256,0.193408955 1.12395349,0.193408955 C1.74565891,0.193408955 2.24875969,0.698662687 2.24875969,1.32033433" id="Fill-71" fill="#DC9C42" mask="url(#mask-6)"></path>
                        </g>
                        <path d="M22.3306977,90.1315224 C22.3306977,90.753194 21.8268217,91.2568955 21.2051163,91.2568955 C20.5857364,91.2568955 20.0810853,90.753194 20.0810853,90.1315224 C20.0810853,89.5098507 20.5857364,89.0053731 21.2051163,89.0053731 C21.8268217,89.0053731 22.3306977,89.5098507 22.3306977,90.1315224" id="Fill-74" fill="#DC9C42"></path>
                        <path d="M57.7103101,20.0265194 C57.7103101,20.6474149 57.2072093,21.1526687 56.5855039,21.1526687 C55.9645736,21.1526687 55.4614729,20.6474149 55.4614729,20.0265194 C55.4614729,19.4056239 55.9645736,18.8988179 56.5855039,18.8988179 C57.2072093,18.8988179 57.7103101,19.4056239 57.7103101,20.0265194" id="Fill-76" fill="#DC9C42"></path>
                        <path d="M47.342093,22.2779642 C47.342093,22.8996358 46.8382171,23.4041134 46.2165116,23.4041134 C45.5955814,23.4041134 45.0932558,22.8996358 45.0932558,22.2779642 C45.0932558,21.6562925 45.5955814,21.152591 46.2165116,21.152591 C46.8382171,21.152591 47.342093,21.6562925 47.342093,22.2779642" id="Fill-78" fill="#DC9C42"></path>
                        <path d="M71.9037984,56.355194 C71.9037984,56.9760896 71.4006977,57.4828955 70.7789922,57.4828955 C70.1596124,57.4828955 69.6565116,56.9760896 69.6565116,56.355194 C69.6565116,55.7342985 70.1596124,55.2290448 70.7789922,55.2290448 C71.4006977,55.2290448 71.9037984,55.7342985 71.9037984,56.355194" id="Fill-80" fill="#DC9C42"></path>
                        <path d="M7.16147287,67.8264716 C7.16147287,68.4481433 6.65682171,68.9526209 6.03666667,68.9526209 C5.41573643,68.9526209 4.91263566,68.4481433 4.91263566,67.8264716 C4.91263566,67.2048 5.41573643,66.6995463 6.03666667,66.6995463 C6.65682171,66.6995463 7.16147287,67.2048 7.16147287,67.8264716" id="Fill-82" fill="#DC9C42"></path>
                        <path d="M68.5592248,41.1564478 C68.5592248,41.7765672 68.0553488,42.2818209 67.4344186,42.2818209 C66.8127132,42.2818209 66.3111628,41.7765672 66.3111628,41.1564478 C66.3111628,40.5347761 66.8127132,40.0279701 67.4344186,40.0279701 C68.0553488,40.0279701 68.5592248,40.5347761 68.5592248,41.1564478" id="Fill-84" fill="#DC9C42"></path>
                        <path d="M30.8555814,44.4818866 C30.8555814,45.1051104 30.3524806,45.6072597 29.7315504,45.6072597 C29.109845,45.6072597 28.6075194,45.1051104 28.6075194,44.4818866 C28.6075194,43.8602149 29.109845,43.3565134 29.7315504,43.3565134 C30.3524806,43.3565134 30.8555814,43.8602149 30.8555814,44.4818866" id="Fill-86" fill="#DC9C42"></path>
                        <path d="M27.8956589,48.5587642 C27.8956589,49.1804358 27.3917829,49.6872418 26.7708527,49.6872418 C26.1499225,49.6872418 25.6468217,49.1804358 25.6468217,48.5587642 C25.6468217,47.9370925 26.1499225,47.433391 26.7708527,47.433391 C27.3917829,47.433391 27.8956589,47.9370925 27.8956589,48.5587642" id="Fill-88" fill="#DC9C42"></path>
                        <path d="M76.6442636,49.4959284 C76.6442636,50.1176 76.1411628,50.6228537 75.5194574,50.6228537 C74.8985271,50.6228537 74.3969767,50.1176 74.3969767,49.4959284 C74.3969767,48.875809 74.8985271,48.369003 75.5194574,48.369003 C76.1411628,48.369003 76.6442636,48.875809 76.6442636,49.4959284" id="Fill-90" fill="#DC9C42"></path>
                    </g>
                    <g id="Group-50" transform="translate(100.000000, 10.000000)">
                        <path d="M27.4234915,70.9716773 C29.2513671,70.9716773 30.5721896,71.5481318 31.8029385,72.64695 C31.966003,72.79145 31.966003,73.0078136 31.8215744,73.1507682 L30.7173947,74.2859045 C30.5908256,74.4296318 30.4091251,74.4296318 30.2646965,74.2859045 C29.5052818,73.6198136 28.4911758,73.2234045 27.4786228,73.2234045 C25.1623302,73.2234045 23.4431643,75.1498136 23.4431643,77.4193136 C23.4431643,79.6702682 25.1801896,81.5789045 27.4964823,81.5789045 C28.582026,81.5789045 29.5052818,81.1647227 30.2646965,80.55195 C30.4091251,80.4259955 30.608685,80.4437682 30.7173947,80.55195 L31.8394339,81.7048591 C31.9838624,81.8308136 31.9481435,82.06495 31.8215744,82.1916773 C30.5908256,83.3801318 29.0339477,83.9372682 27.4234915,83.9372682 C23.8050122,83.9372682 20.8908164,81.0743136 20.8908164,77.4726318 C20.8908164,73.8717227 23.8050122,70.9716773 27.4234915,70.9716773" id="Fill-1" fill="#DC9C42"></path>
                        <path d="M41.2423551,71.4946591 C41.2423551,71.3153864 41.4054196,71.1531136 41.58712,71.1531136 L43.3055094,71.1531136 C43.5050694,71.1531136 43.6487214,71.3153864 43.6487214,71.4946591 L43.6487214,78.8595227 C43.6487214,80.3902955 44.6993228,81.5965227 46.2732836,81.5965227 C47.8472445,81.5965227 48.9157053,80.3902955 48.9157053,78.8772955 L48.9157053,71.4946591 C48.9157053,71.3153864 49.0593574,71.1531136 49.2589173,71.1531136 L50.9788597,71.1531136 C51.1590071,71.1531136 51.3220717,71.3153864 51.3220717,71.4946591 L51.3220717,78.9854773 C51.3220717,81.72325 49.1323482,83.9378864 46.2732836,83.9378864 C43.4320786,83.9378864 41.2423551,81.72325 41.2423551,78.9854773 L41.2423551,71.4946591 Z" id="Fill-3" fill="#DC9C42"></path>
                        <path d="M66.1183129,76.9867409 C67.1308659,76.9867409 67.9819074,76.1769227 67.9819074,75.11365 C67.9819074,74.1237864 67.1308659,73.3672864 66.1183129,73.3672864 L64.0186631,73.3672864 L64.0186631,76.9867409 L66.1183129,76.9867409 Z M61.6666516,71.4949682 C61.6666516,71.3149227 61.8118567,71.15265 62.0098636,71.15265 L66.2627415,71.15265 C68.4881839,71.15265 70.3160594,72.9523318 70.3160594,75.1321955 C70.3160594,77.3653773 68.4881839,79.1843773 66.2813774,79.1843773 L64.0186631,79.1843773 L64.0186631,83.4158318 C64.0186631,83.5958773 63.8555986,83.75815 63.6754512,83.75815 L62.0098636,83.75815 C61.8118567,83.75815 61.6666516,83.5958773 61.6666516,83.4158318 L61.6666516,71.4949682 Z" id="Fill-6" fill="#DC9C42"></path>
                        <path d="M85.2213986,70.9716773 C87.0492742,70.9716773 88.3700968,71.5481318 89.6008456,72.64695 C89.7631336,72.79145 89.7631336,73.0078136 89.6194816,73.1507682 L88.5153018,74.2859045 C88.3887327,74.4296318 88.2070323,74.4296318 88.0626037,74.2859045 C87.3031889,73.6198136 86.2890829,73.2234045 85.27653,73.2234045 C82.9602373,73.2234045 81.2402949,75.1498136 81.2402949,77.4193136 C81.2402949,79.6702682 82.9773203,81.5789045 85.2936129,81.5789045 C86.3791567,81.5789045 87.3031889,81.1647227 88.0626037,80.55195 C88.2070323,80.4259955 88.4065922,80.4437682 88.5153018,80.55195 L89.637341,81.7048591 C89.7809931,81.8308136 89.7460507,82.06495 89.6194816,82.1916773 C88.3887327,83.3801318 86.8318548,83.9372682 85.2213986,83.9372682 C81.6029194,83.9372682 78.6887235,81.0743136 78.6887235,77.4726318 C78.6887235,73.8717227 81.6029194,70.9716773 85.2213986,70.9716773" id="Fill-8" fill="#DC9C42"></path>
                        <path d="M105.392091,79.4535955 L103.582075,75.4918227 L103.528497,75.4918227 L101.754199,79.4535955 L105.392091,79.4535955 Z M97.5750887,83.2901864 L103.202368,71.1699591 C103.256722,71.0633227 103.346796,70.9713682 103.509861,70.9713682 L103.691561,70.9713682 C103.871709,70.9713682 103.944699,71.0633227 103.998278,71.1699591 L109.571978,83.2901864 C109.679911,83.52355 109.535483,83.7576864 109.263709,83.7576864 L107.689748,83.7576864 C107.41875,83.7576864 107.292181,83.6495045 107.165612,83.3975955 L106.278075,81.4526409 L100.867439,81.4526409 L99.9814551,83.3975955 C99.9084643,83.5784136 99.7461763,83.7576864 99.4557661,83.7576864 L97.8818053,83.7576864 C97.6108076,83.7576864 97.4656025,83.52355 97.5750887,83.2901864 L97.5750887,83.2901864 Z" id="Fill-10" fill="#DC9C42"></path>
                        <path d="M118.451152,71.58445 C118.451152,71.3510864 118.631299,71.1524955 118.885214,71.1524955 L120.477811,71.1524955 C120.712313,71.1524955 120.911873,71.3510864 120.911873,71.58445 L120.911873,76.44645 L125.471467,71.3325409 C125.544458,71.2429045 125.653168,71.1524955 125.816232,71.1524955 L127.624695,71.1524955 C127.96946,71.1524955 128.149608,71.5311318 127.914329,71.8000409 L123.19167,77.0947682 L128.259094,83.12745 C128.439241,83.3608136 128.294813,83.7579955 127.932965,83.7579955 L125.959884,83.7579955 C125.779737,83.7579955 125.670251,83.6853591 125.634532,83.6320409 L120.911873,77.8334955 L120.911873,83.3244955 C120.911873,83.5594045 120.712313,83.7579955 120.477811,83.7579955 L118.885214,83.7579955 C118.631299,83.7579955 118.451152,83.5594045 118.451152,83.3244955 L118.451152,71.58445 Z" id="Fill-12" fill="#DC9C42"></path>
                        <path d="M137.481402,71.4946591 C137.481402,71.3153864 137.626607,71.1531136 137.824614,71.1531136 L145.189694,71.1531136 C145.389254,71.1531136 145.534459,71.3153864 145.534459,71.4946591 L145.534459,72.9713409 C145.534459,73.1513864 145.389254,73.3136591 145.189694,73.3136591 L139.83419,73.3136591 L139.83419,76.2670227 L144.303711,76.2670227 C144.484635,76.2670227 144.646923,76.4292955 144.646923,76.6085682 L144.646923,78.1037955 C144.646923,78.3016136 144.484635,78.4453409 144.303711,78.4453409 L139.83419,78.4453409 L139.83419,81.5965227 L145.189694,81.5965227 C145.389254,81.5965227 145.534459,81.7580227 145.534459,81.9396136 L145.534459,83.4162955 C145.534459,83.5955682 145.389254,83.7578409 145.189694,83.7578409 L137.824614,83.7578409 C137.626607,83.7578409 137.481402,83.5955682 137.481402,83.4162955 L137.481402,71.4946591 Z" id="Fill-14" fill="#DC9C42"></path>
                        <path d="M154.612882,81.9928545 L155.264364,80.8770364 C155.408792,80.6243545 155.717062,80.6243545 155.87935,80.7510818 C155.9702,80.8044 157.436228,81.8669 158.611845,81.8669 C159.552961,81.8669 160.258797,81.2549 160.258797,80.4798545 C160.258797,79.5618545 159.480746,78.9320818 157.96114,78.3193091 C156.259834,77.6346727 154.558527,76.5551727 154.558527,74.4294 C154.558527,72.8267636 155.752781,70.9714455 158.630481,70.9714455 C160.47544,70.9714455 161.887889,71.9087636 162.248961,72.1792182 C162.430661,72.2866273 162.485016,72.5934 162.358447,72.7726727 L161.67047,73.7988545 C161.526041,74.0152182 161.253491,74.1597182 161.036848,74.0152182 C160.891643,73.9255818 159.517242,73.0253545 158.521772,73.0253545 C157.490583,73.0253545 156.929951,73.7092182 156.929951,74.2856727 C156.929951,75.1318091 157.599292,75.7074909 159.064544,76.3032636 C160.820205,77.0049 162.84764,78.0488545 162.84764,80.3724455 C162.84764,82.2277636 161.237184,83.9378091 158.684836,83.9378091 C156.405039,83.9378091 155.06558,82.8760818 154.702956,82.5329909 C154.539891,82.3707182 154.449818,82.2810818 154.612882,81.9928545" id="Fill-16" fill="#DC9C42"></path>
                        <path d="M189.093884,74.0150636 C189.093884,73.3312 188.496757,72.6658818 187.557195,72.6658818 C186.724789,72.6658818 186.216183,73.2237909 186.216183,73.8891091 C186.198324,74.5204273 186.615303,74.9338364 187.158851,75.5110636 L187.557195,75.9059273 C187.828192,75.7436545 189.093884,75.1316545 189.093884,74.0150636 M187.374718,82.0120182 C188.732812,82.0120182 189.437096,81.2547455 189.710423,80.9495182 L187.01287,78.1035636 C186.724789,78.2828364 185.474628,78.8770636 185.474628,80.3174273 C185.474628,81.3088364 186.308586,82.0120182 187.374718,82.0120182 M185.820169,76.9321091 L185.820169,76.8965636 L185.438909,76.4823818 C184.714437,75.7266545 184.191077,74.9523818 184.20816,73.8891091 C184.20816,72.5206091 185.348835,70.9720636 187.627856,70.9720636 C189.656068,70.9720636 191.049105,72.2872455 191.049105,73.9076545 C191.049105,75.7629727 189.204146,76.8610182 188.840745,77.1847909 L190.921759,79.2742455 C191.212169,78.6977909 191.447448,77.9590636 191.573241,77.2759727 C191.645455,76.8965636 191.754165,76.6995182 192.170368,76.8254727 L193.165061,77.1137 C193.636395,77.2396545 193.510603,77.6352909 193.473331,77.8153364 C193.165061,79.1119727 192.585794,80.2463364 192.352068,80.6782909 L193.962524,82.1912909 C194.179944,82.4068818 194.360091,82.6054727 193.926805,83.0188818 L193.18525,83.7753818 C192.966278,83.9739727 192.678197,84.0102909 192.387787,83.7220636 L191.084047,82.4068818 C190.758695,82.7855182 189.493003,83.9376545 187.140992,83.9376545 C184.841782,83.9376545 183.320623,82.3898818 183.320623,80.5523364 C183.320623,78.1754273 185.49404,77.1307 185.820169,76.9321091" id="Fill-19" fill="#DC9C42"></path>
                        <path d="M213.822773,81.9928545 L214.474254,80.8770364 C214.61713,80.6243545 214.926176,80.6243545 215.089241,80.7510818 C215.179314,80.8044 216.645342,81.8669 217.820959,81.8669 C218.761298,81.8669 219.468688,81.2549 219.468688,80.4798545 C219.468688,79.5618545 218.691413,78.9320818 217.169478,78.3193091 C215.469724,77.6346727 213.767641,76.5551727 213.767641,74.4294 C213.767641,72.8267636 214.961118,70.9714455 217.838819,70.9714455 C219.686107,70.9714455 221.097003,71.9087636 221.458075,72.1792182 C221.638999,72.2866273 221.69413,72.5934 221.566784,72.7726727 L220.879584,73.7988545 C220.733602,74.0152182 220.463381,74.1597182 220.245185,74.0152182 C220.10231,73.9255818 218.725579,73.0253545 217.730886,73.0253545 C216.698144,73.0253545 216.138289,73.7092182 216.138289,74.2856727 C216.138289,75.1318091 216.808406,75.7074909 218.272105,76.3032636 C220.029319,77.0049 222.055201,78.0488545 222.055201,80.3724455 C222.055201,82.2277636 220.445522,83.9378091 217.89395,83.9378091 C215.613376,83.9378091 214.273918,82.8760818 213.912847,82.5329909 C213.749782,82.3707182 213.659708,82.2810818 213.822773,81.9928545" id="Fill-22" fill="#DC9C42"></path>
                        <path d="M230.484084,71.58445 C230.411093,71.3325409 230.554745,71.1524955 230.809436,71.1524955 L232.474247,71.1524955 C232.617123,71.1524955 232.763105,71.27845 232.7996,71.4051773 L234.680277,78.5892227 L234.753268,78.5892227 L237.630969,71.1702682 C237.665911,71.0628591 237.758314,70.9716773 237.939238,70.9716773 L238.265367,70.9716773 C238.445515,70.9716773 238.535588,71.0628591 238.570531,71.1702682 L241.466867,78.5892227 L241.538305,78.5892227 L243.385593,71.4051773 C243.421312,71.27845 243.566517,71.1524955 243.709393,71.1524955 L245.376533,71.1524955 C245.629671,71.1524955 245.772547,71.3325409 245.702662,71.58445 L242.280637,83.6853591 C242.244918,83.8306318 242.100489,83.9372682 241.954508,83.9372682 L241.666427,83.9372682 C241.503363,83.9372682 241.393876,83.8476318 241.358158,83.7402227 L238.119386,75.5817682 L238.029312,75.5817682 L234.826259,83.7402227 C234.771128,83.8476318 234.700466,83.9372682 234.517213,83.9372682 L234.229132,83.9372682 C234.083927,83.9372682 233.938722,83.8306318 233.903003,83.6853591 L230.484084,71.58445 Z" id="Fill-25" fill="#DC9C42"></path>
                        <path d="M255.049132,71.4946591 C255.049132,71.3153864 255.194337,71.1531136 255.392344,71.1531136 L262.758201,71.1531136 C262.958538,71.1531136 263.101413,71.3153864 263.101413,71.4946591 L263.101413,72.9713409 C263.101413,73.1513864 262.958538,73.3136591 262.758201,73.3136591 L257.402697,73.3136591 L257.402697,76.2670227 L261.872217,76.2670227 C262.053141,76.2670227 262.215429,76.4292955 262.215429,76.6085682 L262.215429,78.1037955 C262.215429,78.3016136 262.053141,78.4453409 261.872217,78.4453409 L257.402697,78.4453409 L257.402697,81.5965227 L262.758201,81.5965227 C262.958538,81.5965227 263.101413,81.7580227 263.101413,81.9396136 L263.101413,83.4162955 C263.101413,83.5955682 262.958538,83.7578409 262.758201,83.7578409 L255.392344,83.7578409 C255.194337,83.7578409 255.049132,83.5955682 255.049132,83.4162955 L255.049132,71.4946591 Z" id="Fill-27" fill="#DC9C42"></path>
                        <path d="M272.921469,71.4946591 C272.921469,71.3153864 273.066674,71.1531136 273.264681,71.1531136 L280.630538,71.1531136 C280.830874,71.1531136 280.97375,71.3153864 280.97375,71.4946591 L280.97375,72.9713409 C280.97375,73.1513864 280.830874,73.3136591 280.630538,73.3136591 L275.275033,73.3136591 L275.275033,76.2670227 L279.744554,76.2670227 C279.925478,76.2670227 280.087766,76.4292955 280.087766,76.6085682 L280.087766,78.1037955 C280.087766,78.3016136 279.925478,78.4453409 279.744554,78.4453409 L275.275033,78.4453409 L275.275033,81.5965227 L280.630538,81.5965227 C280.830874,81.5965227 280.97375,81.7580227 280.97375,81.9396136 L280.97375,83.4162955 C280.97375,83.5955682 280.830874,83.7578409 280.630538,83.7578409 L273.264681,83.7578409 C273.066674,83.7578409 272.921469,83.5955682 272.921469,83.4162955 L272.921469,71.4946591 Z" id="Fill-29" fill="#DC9C42"></path>
                        <path d="M292.495423,73.3132727 L289.728762,73.3132727 C289.528425,73.3132727 289.383997,73.151 289.383997,72.9717273 L289.383997,71.4942727 C289.383997,71.315 289.528425,71.1527273 289.728762,71.1527273 L297.634285,71.1527273 C297.834621,71.1527273 297.978273,71.315 297.978273,71.4942727 L297.978273,72.9717273 C297.978273,73.151 297.834621,73.3132727 297.634285,73.3132727 L294.866847,73.3132727 L294.866847,83.4159091 C294.866847,83.5959545 294.704559,83.7582273 294.522858,83.7582273 L292.838635,83.7582273 C292.658487,83.7582273 292.495423,83.5959545 292.495423,83.4159091 L292.495423,73.3132727 Z" id="Fill-31" fill="#DC9C42"></path>
                        <path d="M306.351869,81.9928545 L307.00335,80.8770364 C307.148556,80.6243545 307.456825,80.6243545 307.618337,80.7510818 C307.709963,80.8044 309.174438,81.8669 310.352385,81.8669 C311.291947,81.8669 311.997784,81.2549 311.997784,80.4798545 C311.997784,79.5618545 311.220509,78.9320818 309.700127,78.3193091 C307.998821,77.6346727 306.299067,76.5551727 306.299067,74.4294 C306.299067,72.8267636 307.492544,70.9714455 310.370244,70.9714455 C312.215203,70.9714455 313.626099,71.9087636 313.987947,72.1792182 C314.169648,72.2866273 314.223226,72.5934 314.097433,72.7726727 L313.40868,73.7988545 C313.265028,74.0152182 312.992477,74.1597182 312.775834,74.0152182 C312.631406,73.9255818 311.254675,73.0253545 310.259982,73.0253545 C309.229569,73.0253545 308.668162,73.7092182 308.668162,74.2856727 C308.668162,75.1318091 309.337503,75.7074909 310.80353,76.3032636 C312.558415,77.0049 314.58585,78.0488545 314.58585,80.3724455 C314.58585,82.2277636 312.974618,83.9378091 310.423046,83.9378091 C308.144026,83.9378091 306.805344,82.8760818 306.441943,82.5329909 C306.278878,82.3707182 306.188804,82.2810818 306.351869,81.9928545" id="Fill-33" fill="#DC9C42"></path>
                        <path d="M81.5967074,45.1351545 C81.5967074,57.2662 77.2079424,62.7919727 73.1297765,62.7919727 C70.4081521,62.7919727 68.5072857,60.4382455 68.5072857,57.0683818 C68.5072857,54.4797455 69.772977,47.6465182 81.3257097,39.4077 C81.5074101,41.3457 81.5967074,43.2272909 81.5967074,45.1351545 M94.6154677,28.8143818 C94.6154677,29.6017909 94.1394747,30.5082 93.2876567,31.3566545 C92.670341,31.9354273 91.3782488,32.8217455 90.2996935,33.4368364 C90.656106,32.0582909 91.2431382,30.7176091 91.9412097,29.7138364 C93.0112235,28.2016091 93.7667558,28.0385636 94.0416359,28.0385636 C94.540924,28.0385636 94.6154677,28.5246091 94.6154677,28.8143818 M162.260841,28.3654273 C161.960336,28.3654273 161.601594,28.5338818 161.492885,28.8669273 L161.293325,29.3274727 C155.915302,41.7660636 154.372401,42.1802455 154.261362,42.1802455 C154.031518,41.9515182 153.280645,40.7592 153.280645,35.0371545 C153.280645,32.9979273 153.364507,30.7052455 153.537666,27.9976091 L153.537666,27.6923818 C153.537666,26.9953818 153.384696,26.0696545 152.060767,26.0696545 C150.589304,26.0696545 150.508548,27.4520636 150.468947,28.1173818 C150.461182,28.2526091 150.45497,28.3770182 150.446429,28.4380636 C149.255281,33.1779727 147.751205,36.0818818 145.976131,37.0694273 L145.910906,37.0864273 C145.712899,37.0864273 145.314555,36.6668364 145.083935,36.0981091 C144.703452,35.2967909 144.517869,34.3486545 144.517869,33.2003818 C144.517869,29.2965636 146.99179,25.6415636 148.115382,25.6415636 C148.575069,25.6415636 148.820442,26.5757909 148.908963,26.9984727 C149.012237,27.4072455 149.352343,27.6823364 149.755346,27.6823364 C150.163007,27.6823364 150.616482,27.3299727 150.616482,26.8253818 L150.60794,26.6306545 C150.106323,23.9655182 147.759747,22.8891091 145.050546,24.6872455 C143.720406,25.6577909 142.634085,27.2418818 141.93679,29.0438818 C141.585813,29.6643818 141.131562,30.5383364 140.609756,31.5506091 C138.548154,35.5363364 134.713032,42.9583818 132.31909,43.4660636 L131.970442,43.5124273 C130.359986,43.5124273 129.398682,40.0003818 129.398682,34.1176091 L129.397129,32.8101545 C129.507392,29.8266545 130.363092,22.1364727 130.892664,17.5835636 C131.498332,17.3927 132.22591,17.1400182 133.034244,16.8602909 C136.189931,15.7661091 140.512694,14.2685636 143.757677,14.2685636 C144.965908,14.2685636 146.568599,14.5050182 147.400228,15.7035182 C147.602118,15.9052 147.835843,16.0025636 148.114606,16.0025636 C148.625541,16.0025636 149.385733,15.5358364 149.385733,14.8906091 L149.249846,14.4609727 C148.321931,13.0754727 146.727005,12.4016545 144.37344,12.4016545 C141.004217,12.4016545 136.789387,13.8242455 133.402304,14.9686545 C132.594747,15.2414273 131.818249,15.5033818 131.128719,15.7197455 C131.441647,13.1867455 131.714198,11.0432 131.899005,9.94051818 L131.961124,9.58660909 C131.961124,8.78374545 131.430776,8.24129091 130.535475,8.16788182 L130.330479,8.16788182 C129.749659,8.16788182 129.0578,8.51483636 128.810097,9.34629091 C128.428836,11.4836545 128.143862,13.8458818 127.820062,16.6833364 C125.912984,17.1523818 124.325046,17.3996545 123.23562,17.4004273 L122.380696,17.3502 C122.036707,17.3192909 121.516454,17.2721545 121.427933,17.2064727 C121.427157,17.2049273 121.403085,17.1577909 121.403085,16.9816091 L121.403085,16.5736091 C121.403085,16.0520182 120.985329,15.5134273 120.285705,15.5134273 C119.745263,15.5134273 119.413698,15.8078364 119.285576,16.4522909 L119.270823,16.7783818 C119.270823,17.6307 119.742157,19.0633364 122.89862,19.0633364 C124.131698,19.0633364 125.677705,18.8577909 127.610408,18.4382 C127.534311,19.2140182 127.462873,19.9882909 127.392212,20.7502 C127.251666,22.2624273 127.116555,23.7298364 126.960479,25.0929273 L126.920101,25.4924273 C126.823816,26.4235636 126.672399,27.9280636 126.555924,29.6775182 C125.424567,32.3233364 123.055472,37.4047909 121.495488,39.9756545 C119.807382,42.6979727 119.047968,43.1044273 118.74591,43.1044273 C118.539362,43.1044273 117.864585,42.7427909 117.864585,38.0963818 C117.864585,36.4172455 117.956212,34.5209727 118.037744,32.8487909 C118.106853,31.4254273 118.172855,30.0824273 118.172855,29.0693818 C118.172855,28.4473364 118.112288,27.9597455 118.061039,27.6522 C117.75044,25.9892909 117.06324,24.0814273 114.492256,24.0814273 C113.077477,24.0814273 111.463915,25.7312 109.696606,28.9805182 C108.388984,31.3280636 107.134164,34.1763364 106.151894,36.6768818 C106.271475,33.6006545 106.509083,29.1342909 106.692336,27.7943818 L106.692336,27.6406091 C106.692336,26.8493364 106.071138,26.2744273 105.216214,26.2744273 C104.567839,26.2744273 103.799106,26.6577 103.642253,27.5208364 C103.545968,28.2016091 103.457447,29.0106545 103.379021,29.8869273 C103.240028,30.1921545 103.073857,30.5592 102.868862,31.0104727 C102.454212,31.9253818 102.039562,32.8433818 101.895134,33.1292909 L101.715763,33.4886091 C100.188392,36.5354727 97.8821935,41.1401545 94.2419724,42.7219273 C93.7745207,42.8772455 93.338129,42.8996545 93.1191567,42.8996545 C90.161477,42.8996545 89.9324101,38.1690182 89.9324101,36.7193818 C89.9324101,36.4334727 89.9456106,36.1614727 89.9588111,35.9033818 C89.9657995,35.7766545 89.971235,35.6530182 89.975894,35.5324727 C92.4754401,34.5132455 95.384977,32.4052455 96.1436152,30.0314273 C96.3066797,29.6535636 96.3889885,29.2440182 96.3889885,28.8143818 C96.3889885,27.2944273 95.3430461,26.2744273 93.7853917,26.2744273 C92.9079493,26.2744273 91.5219009,26.5989727 89.8897028,28.1591091 C88.8064885,29.2641091 87.958553,30.7670636 87.4010276,32.4423364 C86.3558618,33.5141091 85.1266659,34.5132455 83.8594217,35.4606091 C83.6637442,34.1709273 83.4812673,33.2544727 83.3174263,32.4292 C83.1823157,31.7468818 83.0588525,31.1333364 82.9501429,30.3992455 C82.8080438,29.6898818 82.2722604,29.2324273 81.5858364,29.2324273 C81.2496129,29.2324273 80.9413433,29.3336545 80.6664631,29.5384273 C80.2021175,29.8900182 79.9287903,30.7083364 79.4442558,32.2445182 C78.6809585,34.6716545 77.6342396,37.9951545 75.2837811,39.1187 L74.827977,39.3203818 C74.4125507,39.4973364 74.1485415,39.5344273 74.0010069,39.5344273 C72.6491244,39.5344273 72.0442327,37.5060182 72.0442327,35.4953818 C72.0442327,34.3965636 72.2368041,33.1625182 72.5854516,32.0212 C73.4093157,29.3560636 75.0221014,26.5093364 77.0759378,26.5093364 C77.3624654,26.5093364 77.6288041,26.5626545 77.8959194,26.6886091 C78.8121866,26.9837909 79.1499631,27.6359727 79.4209608,28.1606545 C79.6228502,28.5516545 79.8325046,28.9565636 80.3558641,28.9565636 L80.5150461,28.9318364 C80.8636935,28.8159273 81.0632535,28.5323364 81.0632535,28.1513818 C81.0632535,26.9505636 79.4520207,24.7436545 76.82047,24.7436545 C75.7069724,24.7436545 74.5461083,25.1315636 73.3720438,25.8934727 C70.9020046,27.4582455 69.5345922,30.3915182 69.075682,33.1462909 C65.0658479,41.8479727 63.8436406,42.1802455 63.7458018,42.1802455 C63.516735,41.9515182 62.7658618,40.7592 62.7658618,35.0371545 C62.7658618,32.9979273 62.848947,30.7052455 63.022106,27.9976091 L63.022106,27.6923818 C63.022106,26.9953818 62.8683594,26.0696545 61.5459839,26.0696545 C60.0737442,26.0696545 59.9929885,27.4512909 59.9533871,28.1158364 C59.9456221,28.2510636 59.9386336,28.3762455 59.9316452,28.4380636 C58.7397212,33.1779727 57.2356452,36.0818818 55.4605714,37.0694273 L55.3961221,37.0864273 C55.1973387,37.0864273 54.7982189,36.6668364 54.5683756,36.0981091 C54.1878917,35.2967909 54.0023088,34.3486545 54.0023088,33.2003818 C54.0023088,29.2965636 56.4754539,25.6415636 57.5990461,25.6415636 C58.0595092,25.6415636 58.3048825,26.5757909 58.3934032,26.9969273 C58.4959009,27.4064727 58.8360069,27.6823364 59.2397857,27.6823364 C59.6466705,27.6823364 60.1009217,27.3299727 60.1009217,26.8253818 L60.0923802,26.6306545 C59.5899862,23.9662909 57.2472926,22.8883364 54.5342097,24.6872455 C53.0029562,25.8046091 51.7892903,27.7294727 51.1292673,29.8745636 C50.4265369,31.1086091 49.4170899,33.1277455 47.9968756,35.9907 C44.5274839,42.9862 38.7208341,54.6930182 36.1723687,55.1922 L35.9673733,55.1922 C35.8609931,55.1922 34.9323018,55.0569727 34.9323018,50.3873818 C34.9323018,45.2603364 36.0675415,37.6389273 36.5512995,34.3849727 L36.6188548,33.9282909 C36.7058226,33.2699273 36.8580161,32.3279727 37.0428226,31.1812455 C37.730023,26.9273818 38.8776866,19.8074727 38.8776866,13.6658364 C38.8776866,5.75388182 36.898394,1.74188182 32.9941636,1.74188182 C28.1705599,1.74188182 25.0172028,13.6434273 22.4827143,23.2059273 C21.7551359,25.9545182 21.0943364,28.4442455 20.4995392,30.2238364 C20.4715853,29.6713364 20.4467373,29.0199273 20.4281014,28.2757909 L20.3892765,27.6027455 C20.2471774,25.1076091 20.0709124,22.0020182 19.544447,19.5748818 C18.7749378,16.1911091 17.4758571,14.5459727 15.5276244,14.5459727 L15.5245184,14.5459727 L14.9002143,14.6062455 C11.1326475,15.4091091 7.51805069,26.3331545 4.81661521,37.2324727 C5.00608065,33.5481091 5.10469585,30.0051545 5.10469585,26.7736091 C5.10469585,22.0862455 4.87174654,18.0920182 4.42293088,15.1772909 C4.22725346,14.3983818 3.62313825,13.9316545 2.80859217,13.9316545 C1.85582949,13.9316545 0.870453917,14.5382455 0.870453917,15.5543818 L0.870453917,15.6733818 L0.934126728,15.7977909 C1.20279493,18.4822455 1.48621659,23.7313818 1.48621659,28.3043818 C1.48621659,29.9912455 1.43496774,31.6139727 1.38371889,32.9716545 C1.13756912,38.0330182 0.702730415,43.9142455 0.0559078341,50.9290636 L0,51.3563818 C0,52.4049727 0.691859447,53.2155636 1.68111751,53.2843364 L1.83408756,53.2843364 C2.88934793,53.2843364 3.59363134,52.4351091 3.77067281,50.9391091 C4.04167051,47.7060182 8.5593341,26.1793818 13.0366198,18.6530182 C13.3340184,18.1182909 14.0196659,17.3293364 14.5445783,17.3293364 C14.9281682,17.3293364 15.8995668,17.8153818 16.6620876,22.3134273 C17.0798433,24.9461091 17.177682,27.2086545 17.2545553,29.0253364 C17.3205576,30.5661545 17.3725829,31.7839727 17.5915553,32.7035182 C17.84547,33.7745182 18.4884101,34.4143364 19.3107212,34.4143364 C20.1431267,34.4143364 21.0019332,33.6593818 21.6215783,32.3689273 C22.1131014,31.1665636 22.8531037,28.6343364 23.9479654,24.4028818 C25.9000806,17.1067909 28.8507719,6.0792 32.015,3.81510909 C32.3248226,3.58483636 32.6369747,3.45656364 32.8924424,3.45656364 C33.5656659,3.45656364 34.6962465,4.46497273 34.6962465,11.2178364 C34.6962465,17.5943818 33.6596221,25.8502 33.2146889,29.0972 C31.9924816,37.2417455 31.0568018,43.8586091 31.0568018,48.7043818 C31.0568018,50.3618818 31.178712,51.6987 31.4233088,52.7642909 C32.010341,56.2717 33.856076,57.0073364 35.3003618,57.0073364 C35.5923249,57.0073364 35.8835115,56.9679273 36.2111935,56.9200182 L36.3695991,56.8976091 C39.7031037,56.2608818 44.6222166,46.7787455 49.7960207,36.2727455 C50.0973018,35.6615182 50.3869355,35.0750182 50.6672512,34.5086091 C50.9654263,36.8662 52.1573502,38.4402455 54.0442396,38.8884273 C54.3090253,38.9533364 54.5598341,38.9533364 54.7803594,38.9533364 C57.0329793,38.9533364 58.6776014,36.5864727 59.7134493,34.4135636 C59.7732396,41.0180636 60.836265,44.1823818 63.0826728,44.3593364 L63.1346982,44.3593364 C64.6822581,44.3593364 66.6817396,41.9669727 69.1051889,37.2270636 C69.6409724,39.7747455 71.1924147,41.3503364 73.3860207,41.3503364 C73.9287926,41.3503364 74.5445553,41.2004273 74.9599816,41.0752455 C78.187106,40.1518364 79.6725461,36.9975636 80.6563687,34.1477455 C80.8271982,35.2581545 80.9755092,36.3353364 81.1044078,37.4009273 C68.5197097,46.3197455 66.6320438,53.5447455 66.6320438,57.0683818 C66.6320438,61.3477455 69.4499539,64.4533364 73.3347719,64.4533364 C81.039182,64.4533364 84.5489516,54.0423818 84.5489516,44.3693818 C84.5489516,42.2505636 84.407629,39.9887909 84.1179954,37.4619727 C85.0202857,36.8090182 85.9085991,36.1267 86.7565346,35.4142455 C86.7060622,35.8979727 86.6718963,36.3847909 86.6718963,36.8723818 C86.6718963,41.6996091 88.9408226,44.8183364 92.4536982,44.8183364 C93.2270899,44.8183364 94.0618249,44.6537455 94.9276198,44.3299727 C98.4389424,43.0827909 101.133389,38.6635636 103.084728,34.6477 C103.045127,35.6962909 103.021832,36.7317455 103.021832,37.6883818 C103.021832,39.2740182 103.076963,40.5474727 103.179461,41.3712 C103.323113,42.5132909 104.122906,43.0341091 104.806224,43.0341091 C105.355984,43.0341091 106.018336,42.6492909 106.156553,41.8665182 C106.787846,39.8497 108.942627,34.0310636 111.232518,29.8877 C111.296191,29.7826091 111.3785,29.6350182 111.477115,29.4611545 C111.908848,28.6938364 113.221906,26.3555636 114.081488,26.3555636 C114.259306,26.3555636 114.468961,26.5719273 114.645226,26.9196545 C114.890599,27.4883818 115.014062,28.6575182 115.014062,30.3953818 C115.014062,31.1719727 114.990767,32.0181091 114.967472,32.9013364 C114.940295,33.8734273 114.912341,34.8872455 114.912341,35.9033818 C114.912341,40.3867455 115.349509,44.9721091 118.59294,44.9721091 L118.620118,44.9721091 L119.127947,44.9157 C121.187219,44.6050636 124.289327,38.7624727 126.395965,34.2536091 C126.416931,41.7691545 128.066212,45.5833364 131.304207,45.5833364 C134.542979,45.5833364 137.921521,40.2461091 141.154857,34.2644273 C141.399454,36.7572455 142.607684,38.4247909 144.5598,38.8884273 C144.824585,38.9533364 145.075394,38.9533364 145.296696,38.9533364 C147.549316,38.9533364 149.193938,36.5864727 150.229009,34.4135636 C150.288023,41.0180636 151.351825,44.1823818 153.599009,44.3593364 L153.649482,44.3593364 C155.886571,44.3593364 159.060894,39.3814273 163.0948,29.5361091 L163.146048,29.3823364 L163.173226,29.2216091 C163.173226,28.7255182 162.789636,28.3654273 162.260841,28.3654273" id="Fill-36" fill="#BE287E"></path>
                        <g id="Group-40" transform="translate(172.382488, 0.482955)">
                            <mask id="mask-8" fill="white">
                                <use xlink:href="#path-7"></use>
                            </mask>
                            <g id="Clip-39"></g>
                            <path d="M17.9125594,34.5946136 C19.8033313,34.5946136 21.7818475,34.7004773 23.6943613,34.80325 C25.4577876,34.8982955 27.1295871,34.9871591 28.7315018,35.0002955 C25.9260157,42.7051591 22.2430871,48.5431136 18.0531055,51.9160682 C15.5993728,53.9429318 12.9647161,55.0147045 10.4302276,55.0147045 C5.7627,55.0147045 1.96407327,51.1433409 1.96407327,46.3856591 C1.96407327,44.1857045 2.79958479,39.9774318 8.38881521,36.5086591 C10.5047714,35.20275 13.5315594,34.5946136 17.9125594,34.5946136 L17.9125594,34.5946136 Z M43.2753037,27.1578864 C43.2753037,25.37675 45.0853198,24.4448409 46.873594,24.4448409 C48.550829,24.4448409 50.1845802,25.2507955 51.248382,26.6046136 C52.3455733,27.9592045 52.8790272,29.7751136 52.8790272,32.1558864 C52.8790272,32.5144318 52.8510733,32.9108409 52.8169074,33.3111136 L52.2554995,33.3389318 C49.9819143,33.3389318 47.6035018,32.4812045 45.6762346,30.9736136 C46.3238336,29.3076136 47.1453682,28.1369318 48.1680157,26.67725 L48.2542069,26.54125 C48.5034627,26.2939773 48.5034627,25.9702045 48.5034627,25.8318864 C48.5034627,25.5521591 48.405624,25.3157045 48.3287507,25.1665682 C48.0864834,24.76475 47.6275733,24.5159318 47.1298382,24.5159318 C46.8402046,24.5159318 46.4201194,24.5630682 46.1320387,24.9478864 C45.2747853,25.9493409 44.5355594,27.0334773 43.9089258,28.1724773 C43.8056516,28.2876136 43.6922829,28.3880682 43.5859028,28.4985682 C43.3894488,28.0488409 43.2753037,27.5991136 43.2753037,27.1578864 L43.2753037,27.1578864 Z M47.9498198,43.4377045 C45.4828866,43.4377045 44.6085502,39.7780682 44.6085502,36.6438864 C44.6085502,35.2769318 44.7692853,33.8914318 45.0581424,32.7346591 C47.2525249,34.2669773 49.7823544,35.1030682 52.2787945,35.1030682 L52.281124,35.1030682 L52.6569488,35.08375 C52.3587737,37.4799773 51.5768406,42.6356136 48.7115641,43.3612045 C48.4817207,43.4377045 48.2363475,43.4377045 47.9498198,43.4377045 L47.9498198,43.4377045 Z M79.2372415,22.6273864 C79.2605364,22.6111591 79.3009143,22.6088409 79.4197184,22.6088409 C79.9174535,22.6088409 80.4547899,23.4704318 80.4547899,24.8628864 C80.4547899,25.6139773 80.3165733,26.3666136 80.0424696,27.1076591 C79.0376816,26.4547045 78.1276263,25.3010227 78.1276263,24.2006591 C78.1276263,23.5647045 78.4894742,23.0423409 79.2372415,22.6273864 L79.2372415,22.6273864 Z M130.734569,28.3316591 C130.734569,29.1175227 130.258576,30.0247045 129.405981,30.8747045 C128.789442,31.4511591 127.496573,32.3390227 126.417241,32.9548864 C126.77443,31.5755682 127.361463,30.2341136 128.060311,29.2318864 C129.129548,27.7188864 129.885857,27.5558409 130.160737,27.5558409 C130.660025,27.5558409 130.734569,28.0418864 130.734569,28.3316591 L130.734569,28.3316591 Z M162.303859,13.9774773 C161.375944,12.5919773 159.780241,11.9181591 157.427453,11.9181591 C154.057453,11.9181591 149.841847,13.3422955 146.455541,14.4859318 C145.647983,14.7587045 144.872262,15.0206591 144.181956,15.23625 C144.48479,12.7921136 144.765106,10.5813409 144.953794,9.45702273 L145.015138,9.10388636 C145.015138,8.30102273 144.48479,7.75856818 143.590265,7.68515909 L143.384493,7.68515909 C142.802896,7.68515909 142.111036,8.03211364 141.864887,8.86279545 C141.457225,11.13925 141.147403,13.8043864 140.874076,16.1998409 C138.966221,16.6696591 137.379059,16.9169318 136.29041,16.9177045 L135.434709,16.8674773 C135.089944,16.8365682 134.569691,16.7894318 134.481947,16.72375 C134.480394,16.7222045 134.457099,16.6750682 134.457099,16.4988864 L134.457099,16.0908864 C134.457099,15.5692955 134.039343,15.0307045 133.338942,15.0307045 C132.799276,15.0307045 132.467712,15.3251136 132.338813,15.9687955 L132.324836,16.2948864 C132.324836,17.1479773 132.795394,18.5798409 135.95341,18.5798409 C137.185712,18.5798409 138.731718,18.3750682 140.663645,17.9554773 C140.589101,18.7235682 140.51844,19.4885682 140.448555,20.2442955 C140.307232,21.76425 140.171345,23.2401591 140.015269,24.6094318 L139.973338,25.0135682 C139.878606,25.9362045 139.728741,27.4229318 139.612267,29.1538409 C139.452308,29.5007955 139.246536,29.9559318 138.978645,30.5478409 C138.566324,31.4557955 138.156334,32.3622045 138.014235,32.6465682 L137.832534,33.0082045 C136.306716,36.0542955 133.999741,40.6589773 130.360297,42.2392045 C129.893622,42.3945227 129.456453,42.4169318 129.237481,42.4169318 C126.279801,42.4169318 126.049958,37.6862955 126.049958,36.2366591 C126.049958,35.95075 126.063935,35.6779773 126.077912,35.4198864 C126.083347,35.2931591 126.090336,35.1695227 126.094218,35.04975 C128.593765,34.0305227 131.503301,31.9225227 132.26194,29.5487045 C132.425781,29.1700682 132.508089,28.7605227 132.508089,28.3316591 C132.508089,26.8117045 131.461371,25.7909318 129.904493,25.7909318 C129.02705,25.7909318 127.640225,26.1154773 126.008027,27.6763864 C124.257025,29.4629318 123.094608,32.2710227 122.844576,35.2081591 C122.076619,36.8826591 121.279156,38.5038409 120.598944,39.6590682 C118.851048,42.6873864 118.046596,42.7747045 117.960405,42.7747045 C117.648253,42.7747045 116.924557,42.0977955 116.924557,35.8332955 L116.976582,30.0138864 C116.976582,28.7867955 116.921451,27.8641591 116.812741,27.2645227 C116.370138,25.0637955 115.189861,23.7509318 113.655502,23.7509318 C112.677891,23.7509318 111.691739,24.2671136 110.712576,25.3025682 C109.292361,26.9446136 107.694329,30.0370682 105.8517,34.7136136 C105.798122,31.1536591 105.016965,29.2372955 103.415827,28.8547955 L102.943716,28.8007045 C100.952776,28.8007045 99.0674396,31.4248864 97.2038452,36.8038409 C97.2403406,33.4563864 97.3638037,28.5503409 97.4499949,27.4638864 L97.4499949,27.3626591 C97.4499949,26.2406591 96.7340641,25.7399318 96.0251217,25.7399318 C95.2191171,25.7399318 94.5365756,26.3225682 94.3975825,27.1586591 C94.3385687,27.7335682 94.2873198,28.41125 94.2446124,29.1499773 C91.5012461,34.7329318 87.2134258,42.2129318 85.9283221,42.3667045 C85.9236631,42.3667045 85.456988,42.3010227 85.456988,39.9596591 C85.456988,37.99075 85.801753,35.4956136 85.9314281,34.5559773 L85.9601585,34.3450227 C86.0680917,33.8025682 86.1239995,33.3057045 86.1239995,32.8698864 C86.1239995,30.0022955 84.3007829,29.1739318 82.3711862,28.2976591 C82.1460018,28.1956591 81.9161585,28.0913409 81.6855387,27.9816136 L81.593912,27.9483864 C81.9619719,26.9654773 82.1778382,25.8257045 82.1778382,24.8118864 C82.1778382,23.3684318 81.745329,22.2325227 80.9206885,21.5208409 C80.5471931,21.21175 80.0812945,21.0479318 79.573465,21.0479318 C78.050753,21.0479318 76.354882,22.5941591 76.354882,24.8118864 C76.354882,25.7445682 76.7252714,27.5457955 79.0803889,29.2828864 C76.1064028,35.3186591 72.4599696,41.4966136 71.321624,41.7462045 C71.126723,41.50125 70.6957668,40.6412045 70.6957668,37.8678864 C70.6957668,35.0852955 71.0731447,31.2788409 71.463723,27.5658864 L71.463723,27.4128864 C71.463723,26.5203864 70.8852323,25.9439318 69.9876009,25.9439318 C69.8501608,25.9439318 69.7189327,25.96325 69.5946931,25.99725 L69.5985756,25.95475 L69.5752806,26.0026591 C68.8973982,26.1973864 68.4105341,26.8325682 68.2187392,27.2142955 C67.3715802,28.6793864 66.8443382,29.8840682 66.1128774,31.5531591 L65.6291194,32.6604773 C63.7585364,37.0271591 62.9160364,38.2194773 62.6520272,38.5370682 C62.4726562,38.1970682 62.1876816,37.2497045 62.1876816,34.66725 L62.2358244,32.4611136 L62.8531401,26.3418864 C62.8531401,25.5969773 62.3103682,25.0777045 61.531541,25.0777045 C60.9375203,25.0777045 60.2246954,25.4424318 60.0600779,26.2731136 C60.025912,26.5172955 59.9816516,26.8147955 59.9296263,27.1555682 C59.848094,27.6926136 59.7502553,28.3525227 59.6539696,29.0727045 C58.6398636,30.6645227 57.2755571,32.3521591 54.5748982,33.0143864 L54.6012991,32.3088864 C54.6012991,25.65725 50.7452115,22.6799318 46.9240664,22.6799318 C43.8048751,22.6799318 41.4505341,24.5839318 41.4505341,27.1076591 C41.4505341,27.9723409 41.7075548,28.8385682 42.2278083,29.7310682 C39.9293751,31.5531591 37.0571101,32.61875 33.2274235,33.0599773 C34.72917,28.1214773 35.6865917,21.2666136 35.6865917,15.3258864 C35.6865917,13.6119773 35.6205894,12.2643409 35.4800433,11.1037045 C35.3635687,9.66720455 34.7664419,4.98215909 32.0059926,4.98215909 L31.7520779,4.98525 C29.6213682,5.19156818 27.9666516,8.50734091 26.5068359,11.4321136 C26.3251355,11.7991591 26.146541,12.1569318 25.968723,12.5038864 C22.1250594,20.3053409 18.4483429,24.2609318 15.0434005,24.2609318 C14.2599143,24.2609318 13.4764281,24.0569318 12.7216724,23.6605227 C11.5382899,23.0098864 10.8309005,21.1143864 10.8309005,18.5898864 C10.8309005,17.0513864 11.0848152,15.2988409 11.5266424,13.7858409 C13.1852415,8.26779545 19.1565088,2.20806818 22.9349465,2.20806818 C24.5896631,2.20806818 25.7357737,3.37025 26.3422184,5.65443182 C26.4454926,6.06397727 26.7855986,6.33984091 27.1886009,6.33984091 C27.6925479,6.33984091 28.1009857,5.95502273 28.1009857,5.48211364 L28.1009857,5.36465909 L28.0210065,5.20547727 C27.1940364,2.03420455 25.152624,0.289386364 22.267935,0.289386364 C20.5728406,0.289386364 18.7550594,0.920704545 17.0133751,2.11225 C12.8746424,4.94661364 9.41456866,10.06825 8.19624378,15.16825 C7.9205871,16.4324318 7.77460553,17.7561136 7.77460553,18.9978864 C7.77460553,22.9612045 9.38661475,27.1980682 13.9563037,27.1972955 L13.9594097,27.1972955 L15.1140618,27.0922045 C21.260041,26.2259773 24.7278797,19.1416136 27.2608152,13.96975 L27.5900502,13.2990227 C28.8658359,10.67175 30.182776,7.95793182 31.3187922,6.99588636 C31.7318889,7.50820455 32.204776,9.99715909 32.2754373,11.3973409 C32.376382,12.4072955 32.4260779,13.4752045 32.4260779,14.6621136 C32.4260779,20.6662045 31.3040387,27.4144318 29.340276,33.2377045 L29.0848083,33.2377045 C27.3796194,33.2377045 25.6076516,33.1534773 23.7316332,33.0638409 C21.8470733,32.9726591 19.8988406,32.8799318 18.0150571,32.8799318 C14.7467783,32.8799318 10.5979512,33.1264318 7.50050184,35.0458864 C2.85393963,37.90575 0.189776037,42.0576136 0.189776037,46.4358864 C0.189776037,52.3912955 4.9885318,56.8823864 11.3527069,56.8823864 C13.0555664,56.8823864 14.8003567,56.5810227 16.5350525,55.9891136 C23.0211378,53.8239318 28.4348797,46.72025 32.6287438,34.8720227 C36.6610963,34.53125 39.8610433,33.5066136 42.4654166,31.7308864 C41.9801055,33.3945682 41.7075548,35.1803409 41.7075548,36.8988864 C41.7075548,42.0676591 44.0378244,45.4066136 47.6415502,45.4066136 C48.0996839,45.4066136 48.5981954,45.3494318 49.08273,45.2420227 C52.9753129,44.3881591 54.1493774,37.4622045 54.4568705,34.8148409 C56.6139811,34.3257045 58.1452346,33.3312045 59.3255111,32.1419773 C59.2711562,32.8799318 59.2346608,33.6248409 59.2346608,34.3496591 C59.2346608,38.4041591 60.2666263,40.4596136 62.3002737,40.4596136 L62.4019949,40.4596136 C63.4821032,40.4596136 64.3269327,39.2456591 64.7384765,38.5185227 C65.7160871,36.7559318 66.577223,34.8086591 67.4104051,32.9270682 C67.591329,32.5175227 67.7745825,32.1041136 67.9586124,31.6899318 C67.8351493,33.1820682 67.7419696,34.8225682 67.7419696,36.3888864 C67.7419696,41.3382045 68.6636724,43.8194318 70.6018106,43.9793864 L70.7050848,43.9793864 C72.830359,43.9793864 76.1460041,39.3445682 80.5588406,30.23025 C80.8244028,30.3817045 81.074435,30.5207955 81.2972899,30.6421136 C82.6600433,31.3893409 83.11973,31.6404773 83.11973,33.0236591 C83.11973,33.5908409 83.0537276,34.2291136 82.9193935,34.9415682 C82.8254373,35.5983864 82.606465,37.3215682 82.606465,39.1436591 C82.606465,42.6224773 83.5002138,44.3866136 85.2620871,44.3866136 C85.4484465,44.3866136 85.7031378,44.3866136 85.8871677,44.32325 C88.1988014,43.7947045 91.3001332,38.7086136 94.0994074,33.3250227 C94.0916424,33.8659318 94.0877599,34.4107045 94.0877599,34.9616591 C94.0877599,37.96525 94.2042346,40.5477045 94.3991355,41.8613409 C94.5257046,42.8079318 95.1942691,43.4678409 96.0251217,43.4678409 C96.2083751,43.4678409 96.4848083,43.4678409 96.743382,43.2955227 C97.3203198,42.9508864 97.4228175,42.3551136 97.5035733,41.87525 C97.5268682,41.7377045 97.5501631,41.5993864 97.5866585,41.4618409 C98.4866194,38.0293864 100.805241,31.5230227 102.08258,31.1266136 L102.174983,31.1266136 C102.206043,31.1266136 102.953811,31.1698864 102.953811,35.0126591 C102.953811,36.8780227 102.772887,38.9381136 102.686695,39.9279773 L102.646318,40.5206591 C102.646318,41.3382045 103.409615,41.8876136 104.12244,41.8876136 C104.761497,41.8876136 105.231278,41.5360227 105.350082,41.0291136 C105.516253,40.6574318 105.6832,40.1891591 105.874218,39.6474773 L106.027965,39.2170682 C106.207336,38.7418409 106.400684,38.2156136 106.608785,37.65075 C107.956009,33.9864773 109.991986,28.4506591 112.011656,26.4400227 L112.083871,26.3681591 C112.27023,26.1803864 112.522592,25.9238409 112.732246,25.9238409 C112.808343,25.9238409 113.038963,25.9238409 113.401587,26.5984318 C113.86205,27.6176591 113.921841,29.5857955 113.921841,31.1814773 L113.869815,35.5728864 C113.869815,39.7742045 114.299995,44.1238864 117.549638,44.5388409 L117.704161,44.5388409 C119.195036,44.5388409 120.951474,42.65725 123.011523,38.8446136 C123.659898,42.2461591 125.698981,44.3348409 128.572023,44.3348409 C129.346191,44.3348409 130.180926,44.1710227 131.046721,43.84725 C134.70946,42.5459773 137.480004,37.7975682 139.448426,33.6526591 C139.450755,41.2477955 141.102366,45.1006136 144.358221,45.1006136 C147.954182,45.1006136 151.724078,38.5216136 155.276555,31.7826591 C155.841069,30.7139773 156.327933,29.7897955 156.680463,29.1994318 L156.787619,28.8594318 L156.801596,28.7388864 C156.801596,28.2551591 156.374523,27.8309318 155.888435,27.8309318 C155.580942,27.8309318 155.369735,28.0395682 155.227635,28.1802045 L155.149209,28.2814318 C154.785032,28.89575 154.264778,29.9026136 153.662993,31.0678864 C151.602168,35.0536136 147.766269,42.4748864 145.372327,42.9825682 L145.024456,43.0297045 C143.414,43.0297045 142.451919,39.5176591 142.451919,33.6348864 L142.451919,32.3266591 C142.559076,29.3663409 143.417106,21.6637955 143.9459,17.1000682 C144.552345,16.9092045 145.279147,16.6580682 146.088258,16.3775682 C149.243944,15.2841591 153.56593,13.7850682 156.811691,13.7850682 C158.019921,13.7850682 159.622612,14.0222955 160.455018,15.2215682 C160.656907,15.4217045 160.890633,15.5190682 161.167843,15.5190682 C161.679555,15.5190682 162.43897,15.0531136 162.43897,14.4078864 L162.303859,13.9774773 Z" id="Fill-38" fill="#BE287E" mask="url(#mask-8)"></path>
                        </g>
                        <path d="M319.319337,53.55 L204.680663,53.55 C204.304256,53.55 204,53.203575 204,52.775 C204,52.346425 204.304256,52 204.680663,52 L319.319337,52 C319.695744,52 320,52.346425 320,52.775 C320,53.203575 319.695744,53.55 319.319337,53.55" id="Fill-41" fill="#DC9C42"></path>
                        <path d="M166.827968,53.4260545 L89.7931841,53.4260545 C89.3637809,53.4260545 89.0166864,53.0806455 89.0166864,52.6533273 C89.0166864,52.2260091 89.3637809,51.8806 89.7931841,51.8806 L166.827968,51.8806 C167.257371,51.8806 167.604465,52.2260091 167.604465,52.6533273 C167.604465,53.0806455 167.257371,53.4260545 166.827968,53.4260545" id="Fill-44" fill="#DC9C42"></path>
                        <path d="M61.8206311,53.4260545 L46.3263961,53.4260545 C45.8977694,53.4260545 45.5498984,53.0806455 45.5498984,52.6533273 C45.5498984,52.2260091 45.8977694,51.8806 46.3263961,51.8806 L61.8206311,51.8806 C62.2492578,51.8806 62.5971288,52.2260091 62.5971288,52.6533273 C62.5971288,53.0806455 62.2492578,53.4260545 61.8206311,53.4260545" id="Fill-46" fill="#DC9C42"></path>
                        <path d="M24.8020353,53.4260545 L8.72232097,53.4260545 C8.29291774,53.4260545 7.94582327,53.0806455 7.94582327,52.6533273 C7.94582327,52.2260091 8.29291774,51.8806 8.72232097,51.8806 L24.8020353,51.8806 C25.230662,51.8806 25.5785329,52.2260091 25.5785329,52.6533273 C25.5785329,53.0806455 25.230662,53.4260545 24.8020353,53.4260545" id="Fill-48" fill="#DC9C42"></path>
                    </g>
                </g>
            </g>
        </g>
    </g>
</svg>